<svg xmlns="http://www.w3.org/2000/svg" xmlns:xlink="http://www.w3.org/1999/xlink" width="400" zoomAndPan="magnify" viewBox="0 0 300 299.999988" height="400" preserveAspectRatio="xMidYMid meet" version="1.0"><defs><clipPath id="9068dc3b18"><path d="M 8 50 L 293 50 L 293 250.914062 L 8 250.914062 Z M 8 50 " clip-rule="nonzero"/></clipPath></defs><g clip-path="url(#9068dc3b18)"><path fill="#d9d9d9" d="M 292.152344 125.386719 C 291.039062 107.671875 277.546875 91.726562 260.511719 87.195312 C 249.574219 84.261719 237.09375 85.5 227.105469 90.964844 C 226.675781 89.398438 226.164062 87.847656 225.578125 86.332031 C 218.675781 68.027344 200.628906 55.691406 181.851562 51.9375 C 178.152344 51.171875 174.414062 50.6875 170.664062 50.4375 C 159.859375 49.179688 150.078125 53.140625 141.078125 58.390625 C 117.632812 72.011719 98.34375 95.222656 70.148438 98.117188 C 69.65625 98.152344 69.246094 98.523438 69.191406 99.03125 C 69.132812 99.585938 69.535156 100.082031 70.09375 100.136719 C 74.855469 100.742188 79.6875 100.574219 84.425781 99.777344 C 98.566406 97.359375 111.488281 89.816406 123.300781 82.367188 C 137.070312 74.15625 153.40625 60.246094 169.332031 61.886719 C 189.074219 62.84375 209.289062 71.59375 219.554688 89.222656 C 220.511719 90.824219 221.378906 92.484375 222.144531 94.199219 C 219.527344 96.207031 217.183594 98.582031 215.207031 101.3125 C 212.824219 104.742188 211.304688 108.90625 211.398438 113.015625 C 211.414062 113.453125 211.710938 113.855469 212.160156 113.972656 C 212.703125 114.117188 213.269531 113.789062 213.410156 113.238281 C 214.359375 109.714844 216.328125 106.722656 218.828125 104.304688 C 220.53125 102.738281 222.386719 101.359375 224.371094 100.167969 C 225.671875 99.382812 227.039062 98.683594 228.4375 98.066406 C 240.632812 92.652344 255.933594 93.492188 266.859375 100.695312 C 274.449219 105.757812 280.011719 113.9375 281.460938 122.953125 C 282.082031 127.214844 281.792969 131.546875 281.355469 135.792969 C 279.976562 148.523438 273.617188 160.644531 262.160156 166.578125 C 255.269531 170.238281 247.597656 172.449219 239.804688 173.074219 C 225.117188 174.59375 213.601562 169.019531 201.144531 164.019531 C 210.492188 160.40625 219.570312 153.066406 219.804688 142.515625 C 219.820312 141.40625 218.234375 141.097656 217.824219 142.125 C 215.132812 148.398438 210.109375 152.417969 204.195312 155.390625 C 200.164062 157.453125 195.84375 158.761719 191.671875 160.535156 C 191.671875 160.535156 191.671875 160.535156 191.667969 160.535156 C 190.046875 160.011719 188.394531 159.527344 186.707031 159.089844 C 182.652344 158.066406 178.574219 157.363281 174.484375 156.925781 C 174.480469 156.925781 174.480469 156.925781 174.476562 156.925781 C 183.074219 150.714844 189.679688 140.964844 191.707031 131.269531 C 192.847656 126.234375 193.109375 120.648438 190.941406 115.84375 C 190.460938 114.761719 188.800781 115.300781 189.015625 116.441406 C 189.714844 121.027344 188.636719 125.628906 186.972656 129.886719 C 182.65625 141.558594 173.179688 150.652344 162.050781 155.832031 C 161.71875 156.007812 161.375 156.167969 161.035156 156.335938 C 156.410156 156.410156 151.773438 156.746094 147.152344 157.261719 C 147.449219 156.9375 147.738281 156.613281 148.023438 156.273438 C 153.128906 150.332031 156.480469 142.382812 156.085938 134.566406 C 156.066406 134.121094 155.757812 133.726562 155.304688 133.621094 C 154.746094 133.488281 154.1875 133.84375 154.074219 134.40625 C 153.546875 136.644531 152.800781 138.78125 151.878906 140.804688 C 149.078125 146.746094 144.484375 151.753906 138.992188 155.273438 C 124.996094 164.339844 103.953125 162.554688 89.832031 154.722656 C 82.199219 150.183594 76.355469 142.8125 69.96875 136.355469 C 69.175781 135.566406 67.898438 136.433594 68.277344 137.457031 C 70.023438 141.953125 72.140625 146.285156 74.816406 150.453125 C 80.300781 159.234375 87.761719 164.660156 96.855469 167.628906 C 96.855469 167.628906 96.855469 167.628906 96.851562 167.628906 C 93.617188 168.683594 90.445312 169.914062 87.378906 171.378906 C 79.246094 175.160156 71.273438 180.664062 62.355469 180.921875 C 42.765625 183.675781 23.832031 155.589844 19.757812 138.734375 C 16.109375 124.394531 22.496094 108.175781 35.269531 100.453125 C 51.425781 90.515625 71.707031 90.871094 89.363281 83.609375 C 97.539062 80.511719 104.523438 74.925781 111.738281 70.25 C 112.773438 69.578125 111.925781 67.980469 110.769531 68.484375 C 103.066406 72.121094 95.945312 76.800781 87.769531 79.113281 C 75.6875 82.738281 62.574219 83.394531 50.054688 86.171875 C 41.234375 88.0625 32.175781 91.335938 25.03125 97.15625 C 12.730469 106.890625 6.722656 123.585938 9.660156 139.035156 C 12.484375 154.625 23.824219 172.550781 36.0625 182.589844 C 43.492188 188.738281 53.433594 193.082031 63.457031 191.796875 C 66.128906 191.722656 68.714844 191.300781 71.175781 190.667969 C 72.878906 202.84375 74.3125 215.078125 75.242188 227.3125 C 75.835938 234.640625 76.03125 243.425781 75.90625 250.789062 C 75.90625 250.789062 84.910156 246.582031 84.910156 246.582031 C 93.640625 242.570312 103.566406 240.0625 113.121094 238.078125 C 139.375 232.96875 178.277344 229.328125 203.457031 238.910156 C 203.9375 239.109375 204.5 238.914062 204.742188 238.441406 C 205 237.945312 204.804688 237.335938 204.308594 237.082031 C 179.246094 224.875 139.078125 225.0625 111.53125 227.902344 C 103.605469 228.835938 95.851562 229.988281 88.152344 232 C 86.492188 216.902344 83.777344 202.011719 80.832031 187.121094 C 80.835938 187.121094 80.835938 187.121094 80.835938 187.121094 C 86.351562 184.597656 91.34375 181.699219 97.054688 179.570312 C 103.890625 177.019531 111.132812 175.507812 118.386719 173.96875 C 129.355469 171.65625 140.550781 169.464844 151.609375 168.523438 C 164.289062 167.449219 176.910156 168 188.957031 171.9375 C 195.996094 174.265625 202.660156 177.449219 209.679688 180.019531 C 209.679688 180.019531 209.679688 180.019531 209.683594 180.019531 C 208.496094 191.929688 208.527344 204.15625 208.195312 216.125 C 196.769531 212.296875 184.847656 210.214844 172.871094 209.214844 C 158.175781 208.152344 142.964844 209.019531 129.121094 214.324219 C 128.652344 214.507812 128.378906 215.019531 128.511719 215.519531 C 128.652344 216.058594 129.203125 216.382812 129.742188 216.242188 C 136.652344 214.449219 143.785156 213.835938 150.863281 213.9375 C 168.46875 214.316406 185.957031 218.632812 202.070312 225.554688 C 205.238281 226.9375 208.3125 228.480469 211.15625 230.144531 C 211.15625 230.144531 219.535156 234.128906 219.535156 234.128906 C 219.632812 231.6875 220.058594 224.214844 220.089844 221.875 C 220.292969 209.410156 219.804688 195.933594 220.597656 183.261719 C 236.375 186.632812 253.378906 184.191406 267.515625 176.367188 C 286.066406 166.285156 293.28125 145.523438 292.152344 125.386719 Z M 292.152344 125.386719 " fill-opacity="1" fill-rule="nonzero"/></g></svg>