<svg xmlns="http://www.w3.org/2000/svg" xmlns:xlink="http://www.w3.org/1999/xlink" width="500" zoomAndPan="magnify" viewBox="0 0 375 149.999998" height="200" preserveAspectRatio="xMidYMid meet" version="1.0"><defs><g/><clipPath id="f847df393d"><path d="M 128 99 L 272 99 L 272 144 L 128 144 Z M 128 99 " clip-rule="nonzero"/></clipPath><clipPath id="394808767a"><path d="M 137.285156 80.230469 L 271.546875 100.28125 L 262.132812 163.332031 L 127.871094 143.28125 Z M 137.285156 80.230469 " clip-rule="nonzero"/></clipPath><clipPath id="71b1b6a0e8"><path d="M 137.285156 80.230469 L 271.546875 100.28125 L 262.132812 163.332031 L 127.871094 143.28125 Z M 137.285156 80.230469 " clip-rule="nonzero"/></clipPath><clipPath id="601d5dce19"><path d="M 89 2 L 160 2 L 160 67 L 89 67 Z M 89 2 " clip-rule="nonzero"/></clipPath><clipPath id="b106c8e5f6"><path d="M 85.464844 6.523438 L 155.546875 -1.15625 L 162.40625 61.472656 L 92.328125 69.148438 Z M 85.464844 6.523438 " clip-rule="nonzero"/></clipPath><clipPath id="bdcca963fa"><path d="M 85.464844 6.523438 L 155.546875 -1.15625 L 162.40625 61.472656 L 92.328125 69.148438 Z M 85.464844 6.523438 " clip-rule="nonzero"/></clipPath></defs><g clip-path="url(#f847df393d)"><g clip-path="url(#394808767a)"><g clip-path="url(#71b1b6a0e8)"><path fill="#000000" d="M 128.777344 139.734375 C 131.59375 136.167969 242.433594 93.234375 271.195312 100.894531 C 241.644531 103.128906 167.78125 128.621094 144.550781 141.171875 C 146.148438 141.261719 148.28125 141.15625 151.21875 140.722656 C 150.335938 142.234375 142.148438 143.421875 138.53125 143.554688 C 132.714844 143.933594 126.289062 142.894531 128.777344 139.753906 Z M 128.777344 139.734375 " fill-opacity="1" fill-rule="nonzero"/></g></g></g><g fill="#000000" fill-opacity="1"><g transform="translate(119.713674, 121.319327)"><g><path d="M 30.4375 -68.578125 C 28.550781 -68.128906 26.296875 -66.09375 24.417969 -60.410156 C 21.597656 -51.886719 16.613281 -35.746094 13.820312 -20.871094 C 10.726562 -20.257812 7.875 -20.199219 4.972656 -20.875 C 4.679688 -21.054688 4.417969 -21.113281 4.179688 -21.058594 C 3.121094 -20.804688 2.695312 -19.457031 3.570312 -18.917969 C 6.289062 -17.453125 9.636719 -17.007812 13.285156 -17.382812 C 10.515625 -2.390625 10.503906 10.570312 17.433594 10.902344 C 17.671875 10.847656 18.820312 10.449219 18.125 9.617188 C 15.09375 6.855469 16.628906 -5.472656 19.914062 -19.339844 C 33.578125 -24.726562 48.753906 -40.445312 52.707031 -56.214844 C 55.058594 -65.125 54.484375 -72.214844 51.710938 -77.03125 C 46.941406 -84.988281 39.464844 -86.5625 31.453125 -84.644531 C 18.84375 -81.628906 5.023438 -69.601562 -0.25 -59.367188 C -5.914062 -48.667969 -5.882812 -37.089844 4.847656 -31.808594 C 5.285156 -31.539062 5.785156 -31.535156 6.023438 -31.589844 C 6.257812 -31.648438 6.492188 -31.703125 6.554688 -31.96875 C 7.003906 -32.699219 6.535156 -33.085938 5.835938 -33.414062 C -12.5 -42.359375 14.097656 -74.386719 33.070312 -78.925781 C 38.253906 -80.167969 42.945312 -79.296875 45.902344 -75.269531 C 53.960938 -63.992188 38.871094 -33.84375 20.84375 -23.800781 C 25.554688 -42.121094 32.488281 -62.09375 35.472656 -66.792969 C 35.472656 -66.792969 33.148438 -69.226562 30.4375 -68.578125 Z M 30.4375 -68.578125 "/></g></g></g><g fill="#000000" fill-opacity="1"><g transform="translate(173.327574, 108.491563)"><g><path d="M 20.308594 -14.578125 C 19.902344 -15.226562 19.738281 -16.433594 19.878906 -18.460938 C 19.671875 -21.402344 19.964844 -26.953125 21.871094 -29.402344 C 22.671875 -30.21875 22.523438 -30.308594 21.621094 -30.960938 C 20.105469 -32.09375 18.667969 -32.375 17.488281 -32.089844 C 17.015625 -31.980469 16.574219 -31.75 16.039062 -31.371094 C 16.164062 -35.015625 15.851562 -38.925781 12.582031 -41.132812 C 11.707031 -41.671875 10.476562 -42.125 9.300781 -41.84375 C 8.003906 -41.535156 6.757812 -40.488281 5.445312 -38.679688 C -0.242188 -31.214844 -7.773438 -4.371094 2.550781 -2.355469 C 3.34375 -2.171875 3.871094 -2.046875 4.578125 -2.214844 C 4.8125 -2.273438 5.019531 -2.445312 5.257812 -2.503906 C 8.101562 -4.679688 10.679688 -12.648438 12.832031 -19.265625 C 12.890625 -19.03125 12.917969 -18.914062 12.882812 -18.53125 C 13.171875 -15.238281 13.75 -11.261719 16.644531 -9.589844 C 17.519531 -9.050781 18.457031 -8.777344 19.515625 -9.03125 C 25.878906 -10.554688 31.703125 -28.390625 33.242188 -32.371094 C 32.578125 -33.585938 32.226562 -33.5 31.285156 -33.273438 C 30.890625 -32.308594 24.164062 -15.125 21.101562 -14.390625 C 20.863281 -14.335938 20.601562 -14.398438 20.308594 -14.578125 Z M 10.683594 -33.453125 C 11.429688 -34.503906 11.996094 -35.261719 12.585938 -35.402344 C 13.527344 -35.628906 14.214844 -33.800781 14.671875 -29.796875 C 13.808594 -28.71875 13.503906 -27.402344 13.195312 -26.082031 C 10.273438 -19.027344 6.960938 -8.394531 5.195312 -7.96875 C 3.207031 -8.988281 7.273438 -27.40625 10.683594 -33.453125 Z M 10.683594 -33.453125 "/></g></g></g><g fill="#000000" fill-opacity="1"><g transform="translate(202.196592, 101.584306)"><g><path d="M 3.78125 -1.902344 C 7.199219 -2.71875 12.511719 -16.449219 13.511719 -19.554688 L 13.5625 -18.816406 C 13.824219 -15.640625 14.519531 -11.695312 17.175781 -9.964844 C 18.167969 -9.457031 19.226562 -9.210938 20.050781 -9.40625 C 26.296875 -10.902344 32.03125 -28.59375 33.597656 -32.457031 C 33.136719 -33.34375 32.550781 -33.703125 31.960938 -33.5625 C 31.84375 -33.53125 31.753906 -33.386719 31.753906 -33.386719 C 31.363281 -32.421875 24.695312 -15.503906 21.632812 -14.769531 C 21.398438 -14.710938 21.132812 -14.773438 20.960938 -14.980469 C 20.582031 -15.515625 20.417969 -16.722656 20.320312 -18.691406 C 20.394531 -23.070312 22.238281 -30.984375 22.664062 -32.332031 C 23.300781 -34.355469 20.101562 -34.710938 18.097656 -34.230469 C 15.503906 -33.609375 14.21875 -28.570312 13.875 -26.367188 C 10.953125 -19.316406 6.222656 -7.84375 4.542969 -7.566406 C 1.734375 -8.886719 8.261719 -32.125 10.46875 -35.394531 C 9.636719 -37.3125 7.417969 -38.777344 5.53125 -38.324219 C 4.707031 -38.128906 3.847656 -37.550781 3.394531 -36.320312 C -0.417969 -28.304688 -6.578125 -3.535156 1.902344 -1.949219 C 2.546875 -1.855469 3.191406 -1.761719 3.78125 -1.902344 Z M 3.78125 -1.902344 "/></g></g></g><g fill="#000000" fill-opacity="1"><g transform="translate(232.126101, 94.423314)"><g><path d="M 15.261719 -55.976562 C 16.066406 -57.292969 12.890625 -59.644531 9.589844 -58.855469 C 7.351562 -58.320312 6.835938 -56.828125 6.082031 -54.777344 C 3.550781 -46.074219 -3.78125 -9.558594 -2.371094 2.0625 C -2.011719 4.09375 -0.378906 8.3125 2.359375 7.78125 C 0.863281 -6.808594 10.722656 -48.910156 15.261719 -55.976562 Z M 15.261719 -55.976562 "/></g></g></g><g fill="#000000" fill-opacity="1"><g transform="translate(244.262877, 91.519446)"><g><path d="M -0.753906 -6.796875 C 0.5 -3.109375 3.535156 -0.847656 7.425781 -1.777344 C 18.5 -4.425781 26.039062 -34.886719 13.019531 -37.75 C 12.347656 -37.960938 11.492188 -37.882812 10.667969 -37.6875 C 7.484375 -36.925781 5.015625 -33.71875 3.722656 -30.792969 C 1.953125 -30.367188 1.324219 -29.347656 0.75 -27.589844 C -1.277344 -21.996094 -2.871094 -12.519531 -0.753906 -6.796875 Z M 5.386719 -15.492188 C 6.039062 -19.011719 7.183594 -24.644531 8.449219 -27.6875 C 8.808594 -28.269531 9.554688 -29.320312 9.058594 -29.824219 C 8.828125 -30.269531 8.007812 -30.570312 7.363281 -30.664062 C 8.152344 -33.097656 9.667969 -34.582031 11.082031 -34.917969 C 11.789062 -35.089844 12.34375 -34.847656 12.988281 -34.753906 C 21.390625 -31.40625 11.582031 -6.261719 6.753906 -5.105469 C 5.925781 -4.90625 5.34375 -5.265625 4.945312 -6.414062 C 4.117188 -8.832031 5.050781 -14.289062 5.386719 -15.492188 Z M 5.386719 -15.492188 "/></g></g></g><g clip-path="url(#601d5dce19)"><g clip-path="url(#b106c8e5f6)"><g clip-path="url(#bdcca963fa)"><path fill="#000000" d="M 102.152344 55.324219 L 113.222656 66.953125 C 113.222656 66.953125 119.90625 46.507812 140.238281 37.5 C 140.238281 37.5 121.828125 43.375 111.871094 59.554688 L 107.195312 54.667969 L 105.488281 52.917969 L 106.738281 50.367188 C 103.054688 50.5625 99.394531 51.097656 96.199219 47.5625 C 93.007812 44.027344 95.574219 33.199219 103.121094 29.792969 C 103.449219 29.636719 103.792969 29.507812 104.125 29.382812 C 104.085938 32.867188 104.105469 37.410156 103.976562 37.886719 C 106.652344 28.640625 118.726562 -5.492188 131.84375 16.59375 C 131.84375 16.59375 131.941406 15.726562 131.964844 14.421875 C 141.632812 6.550781 145.210938 14.167969 146.101562 21.03125 C 127.410156 21.308594 116.425781 41.550781 114.929688 44.488281 L 114.917969 44.503906 L 114.878906 44.570312 C 114.792969 44.746094 114.746094 44.839844 114.746094 44.839844 L 115.738281 43.652344 C 126.609375 30.847656 138.480469 27.476562 143.648438 26.582031 L 150.796875 34.621094 C 150.796875 34.621094 125.753906 43.46875 118.496094 66.226562 C 118.496094 66.226562 133.613281 43.449219 159.589844 37.644531 L 149.71875 24.746094 C 152.089844 5.328125 138.945312 3.394531 131.941406 7.777344 C 131.632812 7.960938 131.359375 8.082031 131.144531 8.164062 C 130.089844 4.828125 127.726562 1.910156 122.65625 2.449219 C 121.828125 2.539062 120.929688 2.714844 119.941406 3 C 108.023438 6.496094 105.507812 18.847656 104.25 25.4375 C 104.238281 25.484375 104.230469 25.558594 104.226562 25.636719 C 103.667969 25.769531 103.234375 25.894531 103 25.949219 C 101.757812 26.25 100.542969 26.667969 99.339844 27.207031 C 90.207031 31.328125 88.058594 42.648438 90.984375 48.703125 C 93.546875 54.019531 97.296875 54.820312 102.121094 55.3125 Z M 102.152344 55.324219 " fill-opacity="1" fill-rule="evenodd"/></g></g></g><g fill="#000000" fill-opacity="1"><g transform="translate(220.885393, 50.16023)"><g><path d="M 1.359375 -4.953125 L -0.8125 -4.1875 L -0.84375 -4.125 L -1.203125 -2.796875 L 0.625 -2.296875 L 0.21875 -0.78125 L -6.34375 -2.578125 L -5.578125 -5.421875 C -5.421875 -5.992188 -5.1875 -6.46875 -4.875 -6.84375 C -4.5625 -7.21875 -4.191406 -7.472656 -3.765625 -7.609375 C -3.347656 -7.742188 -2.894531 -7.742188 -2.40625 -7.609375 C -1.925781 -7.472656 -1.539062 -7.238281 -1.25 -6.90625 C -0.957031 -6.582031 -0.773438 -6.179688 -0.703125 -5.703125 L 1.796875 -6.59375 Z M -2.828125 -6.0625 C -3.203125 -6.164062 -3.519531 -6.125 -3.78125 -5.9375 C -4.039062 -5.757812 -4.234375 -5.441406 -4.359375 -4.984375 L -4.703125 -3.75 L -2.421875 -3.125 L -2.078125 -4.359375 C -1.953125 -4.816406 -1.953125 -5.1875 -2.078125 -5.46875 C -2.210938 -5.757812 -2.460938 -5.957031 -2.828125 -6.0625 Z M -2.828125 -6.0625 "/></g></g></g><g fill="#000000" fill-opacity="1"><g transform="translate(224.191685, 40.49504)"><g><path d="M 2.640625 -5.625 L 3.65625 -4.859375 L 0.484375 -0.65625 L -4.953125 -4.734375 L -1.859375 -8.84375 L -0.859375 -8.09375 L -3.015625 -5.234375 L -1.828125 -4.34375 L 0.078125 -6.859375 L 1.046875 -6.125 L -0.859375 -3.609375 L 0.40625 -2.671875 Z M 2.640625 -5.625 "/></g></g></g><g fill="#000000" fill-opacity="1"><g transform="translate(230.439554, 33.167123)"><g><path d="M 2.640625 -1.53125 C 2.179688 -1.25 1.703125 -1.035156 1.203125 -0.890625 C 0.703125 -0.742188 0.253906 -0.679688 -0.140625 -0.703125 L -0.3125 -2 C 0.0507812 -1.976562 0.4375 -2.019531 0.84375 -2.125 C 1.257812 -2.226562 1.632812 -2.382812 1.96875 -2.59375 C 2.34375 -2.84375 2.582031 -3.078125 2.6875 -3.296875 C 2.800781 -3.523438 2.800781 -3.726562 2.6875 -3.90625 C 2.59375 -4.050781 2.460938 -4.132812 2.296875 -4.15625 C 2.128906 -4.1875 1.941406 -4.175781 1.734375 -4.125 C 1.535156 -4.070312 1.28125 -3.988281 0.96875 -3.875 C 0.457031 -3.695312 0.0351562 -3.570312 -0.296875 -3.5 C -0.640625 -3.425781 -0.984375 -3.441406 -1.328125 -3.546875 C -1.679688 -3.648438 -1.976562 -3.890625 -2.21875 -4.265625 C -2.4375 -4.597656 -2.539062 -4.957031 -2.53125 -5.34375 C -2.519531 -5.738281 -2.378906 -6.128906 -2.109375 -6.515625 C -1.847656 -6.898438 -1.457031 -7.265625 -0.9375 -7.609375 C -0.570312 -7.828125 -0.191406 -8.003906 0.203125 -8.140625 C 0.609375 -8.273438 1.003906 -8.34375 1.390625 -8.34375 L 1.609375 -7.09375 C 0.878906 -7.050781 0.25 -6.863281 -0.28125 -6.53125 C -0.644531 -6.289062 -0.878906 -6.054688 -0.984375 -5.828125 C -1.085938 -5.597656 -1.078125 -5.378906 -0.953125 -5.171875 C -0.828125 -4.984375 -0.628906 -4.90625 -0.359375 -4.9375 C -0.0976562 -4.96875 0.273438 -5.070312 0.765625 -5.25 C 1.265625 -5.425781 1.6875 -5.546875 2.03125 -5.609375 C 2.375 -5.679688 2.710938 -5.664062 3.046875 -5.5625 C 3.390625 -5.46875 3.679688 -5.234375 3.921875 -4.859375 C 4.140625 -4.523438 4.238281 -4.164062 4.21875 -3.78125 C 4.207031 -3.394531 4.066406 -3.003906 3.796875 -2.609375 C 3.535156 -2.222656 3.148438 -1.863281 2.640625 -1.53125 Z M 2.640625 -1.53125 "/></g></g></g><g fill="#000000" fill-opacity="1"><g transform="translate(238.608779, 28.656887)"><g><path d="M 1 -5.859375 L -1.140625 -5.390625 L -1.40625 -6.640625 L 4.390625 -7.90625 L 4.65625 -6.65625 L 2.53125 -6.1875 L 3.703125 -0.796875 L 2.171875 -0.46875 Z M 1 -5.859375 "/></g></g></g><g fill="#000000" fill-opacity="1"><g transform="translate(247.601001, 27.168351)"><g><path d="M 5.453125 -0.59375 L 2.328125 -1.09375 L 1.515625 0.25 L -0.09375 -0.015625 L 4 -6.234375 L 5.53125 -5.984375 L 7.453125 1.203125 L 5.8125 0.9375 Z M 5.15625 -1.859375 L 4.515625 -4.59375 L 3.03125 -2.203125 Z M 5.15625 -1.859375 "/></g></g></g><g fill="#000000" fill-opacity="1"><g transform="translate(257.837158, 29.430127)"><g><path d="M 3.171875 2.140625 C 2.347656 1.617188 1.851562 0.988281 1.6875 0.25 C 1.519531 -0.488281 1.707031 -1.28125 2.25 -2.125 L 4.265625 -5.34375 L 5.59375 -4.5 L 3.59375 -1.328125 C 2.945312 -0.296875 3.050781 0.484375 3.90625 1.015625 C 4.320312 1.285156 4.71875 1.363281 5.09375 1.25 C 5.46875 1.132812 5.820312 0.8125 6.15625 0.28125 L 8.15625 -2.890625 L 9.46875 -2.0625 L 7.453125 1.15625 C 6.910156 2 6.265625 2.503906 5.515625 2.671875 C 4.773438 2.835938 3.992188 2.660156 3.171875 2.140625 Z M 3.171875 2.140625 "/></g></g></g><g fill="#000000" fill-opacity="1"><g transform="translate(266.508175, 35.691907)"><g><path d="M 2.9375 4.21875 L 3.734375 2.0625 L 3.6875 2 L 2.90625 0.875 L 1.359375 1.953125 L 0.46875 0.671875 L 6.046875 -3.21875 L 7.71875 -0.8125 C 8.070312 -0.320312 8.289062 0.160156 8.375 0.640625 C 8.46875 1.117188 8.429688 1.5625 8.265625 1.96875 C 8.097656 2.375 7.804688 2.722656 7.390625 3.015625 C 6.984375 3.304688 6.554688 3.457031 6.109375 3.46875 C 5.671875 3.476562 5.25 3.359375 4.84375 3.109375 L 3.90625 5.59375 Z M 6.46875 1.703125 C 6.78125 1.484375 6.945312 1.21875 6.96875 0.90625 C 7 0.59375 6.878906 0.238281 6.609375 -0.15625 L 5.875 -1.203125 L 3.953125 0.140625 L 4.6875 1.1875 C 4.957031 1.582031 5.242188 1.820312 5.546875 1.90625 C 5.859375 1.988281 6.164062 1.921875 6.46875 1.703125 Z M 6.46875 1.703125 "/></g></g></g><g fill="#000000" fill-opacity="1"><g transform="translate(271.865503, 44.370605)"><g><path d="M 2.546875 4.84375 L 1.875 1.765625 L 0.328125 1.5 L -0.015625 -0.09375 L 7.265625 1.421875 L 7.609375 2.9375 L 1.609375 7.375 L 1.265625 5.75 Z M 3.625 4.125 L 5.921875 2.5 L 3.15625 2.015625 Z M 3.625 4.125 "/></g></g></g><g fill="#000000" fill-opacity="1"><g transform="translate(273.538026, 54.716163)"><g><path d="M 5.34375 8.203125 L -1.328125 6.921875 L -1.09375 5.640625 L 3.59375 3.09375 L -0.453125 2.3125 L -0.15625 0.796875 L 6.515625 2.078125 L 6.265625 3.359375 L 1.578125 5.890625 L 5.625 6.671875 Z M 5.34375 8.203125 "/></g></g></g><g fill="#000000" fill-opacity="1"><g transform="translate(270.732644, 65.251361)"><g><path d="M 3.4375 4.84375 L 4.625 3.015625 L 5.703125 3.703125 L 2.484375 8.6875 L 1.40625 8 L 2.578125 6.171875 L -2.0625 3.1875 L -1.203125 1.859375 Z M 3.4375 4.84375 "/></g></g></g></svg>