<svg xmlns="http://www.w3.org/2000/svg" xmlns:xlink="http://www.w3.org/1999/xlink" width="500" zoomAndPan="magnify" viewBox="0 0 375 374.999991" height="500" preserveAspectRatio="xMidYMid meet" version="1.0"><defs><clipPath id="5d5178bfd9"><path d="M 9.65625 55 L 172 55 L 172 253 L 9.65625 253 Z M 9.65625 55 " clip-rule="nonzero"/></clipPath><clipPath id="8d502f8681"><path d="M 236 115 L 365.15625 115 L 365.15625 218 L 236 218 Z M 236 115 " clip-rule="nonzero"/></clipPath><clipPath id="42720c20c8"><path d="M 121 170 L 361 170 L 361 363.101562 L 121 363.101562 Z M 121 170 " clip-rule="nonzero"/></clipPath><clipPath id="48df2a8563"><path d="M 82 12.101562 L 211 12.101562 L 211 148 L 82 148 Z M 82 12.101562 " clip-rule="nonzero"/></clipPath></defs><g clip-path="url(#5d5178bfd9)"><path fill="#f7f7f7" d="M 70.691406 233.207031 L 116.605469 233.207031 L 156.242188 201.609375 L 171.234375 170.691406 L 130.257812 115.800781 L 129.199219 105.394531 L 127.140625 85.28125 L 125.28125 67.152344 L 76.40625 55.105469 C 35.871094 86.042969 9.703125 134.871094 9.703125 189.84375 C 9.703125 211.816406 13.921875 232.804688 21.539062 252.078125 L 62.335938 233.207031 Z M 70.691406 233.207031 " fill-opacity="1" fill-rule="nonzero"/></g><path fill="#f7f7f7" d="M 143.070312 282.355469 L 164.597656 260.300781 L 161.621094 205.171875 L 121.980469 236.769531 L 67.730469 236.769531 L 26.914062 255.640625 C 42.707031 295.640625 73.25 328.199219 111.867188 346.550781 L 120.644531 305.347656 L 129.398438 296.382812 Z M 143.070312 282.355469 " fill-opacity="1" fill-rule="nonzero"/><g clip-path="url(#8d502f8681)"><path fill="#f7f7f7" d="M 349.035156 115.558594 L 307.996094 135.410156 L 305.121094 146.796875 L 303.339844 153.820312 L 291.507812 166.628906 L 278.015625 181.238281 L 236.039062 187.441406 L 289.589844 215.675781 L 293.726562 217.859375 L 308.835938 216.058594 L 352.972656 210.773438 L 362.46875 216.65625 C 364.125 207.152344 365.027344 197.40625 365.027344 187.441406 C 365.027344 161.726562 359.269531 137.371094 349.035156 115.558594 Z M 349.035156 115.558594 " fill-opacity="1" fill-rule="nonzero"/></g><g clip-path="url(#42720c20c8)"><path fill="#f7f7f7" d="M 306.519531 222.300781 L 291.40625 224.101562 L 287.269531 221.921875 L 233.71875 193.683594 L 205.074219 170.550781 L 185.746094 174.535156 L 170.753906 205.449219 L 173.753906 260.582031 L 152.226562 282.636719 L 138.53125 296.664062 L 129.777344 305.628906 L 121.003906 346.832031 C 142.96875 357.257812 167.515625 363.121094 193.460938 363.121094 C 276.976562 363.121094 346.296875 302.546875 360.148438 222.921875 L 350.652344 217.039062 Z M 306.519531 222.300781 " fill-opacity="1" fill-rule="nonzero"/></g><path fill="#f7f7f7" d="M 201.996094 83.820312 L 185.746094 110.035156 L 174.953125 147.878906 L 185.746094 162.347656 L 205.074219 158.363281 L 233.71875 181.496094 L 275.695312 175.292969 L 289.1875 160.683594 L 301.023438 147.878906 L 302.800781 140.855469 L 305.679688 129.46875 L 346.714844 109.617188 C 322.851562 58.6875 274.398438 21.625 216.667969 13.703125 L 219.046875 56.304688 L 212.792969 66.390625 Z M 201.996094 83.820312 " fill-opacity="1" fill-rule="nonzero"/><g clip-path="url(#48df2a8563)"><path fill="#f7f7f7" d="M 132.875 76.957031 L 134.933594 97.070312 L 135.992188 107.476562 L 166.175781 147.898438 L 176.972656 110.054688 L 193.222656 83.839844 L 204.035156 66.390625 L 210.292969 56.304688 L 207.933594 13.722656 C 200.339844 12.679688 192.601562 12.101562 184.707031 12.101562 C 146.148438 12.101562 110.609375 25.046875 82.144531 46.78125 L 131.015625 58.828125 Z M 132.875 76.957031 " fill-opacity="1" fill-rule="nonzero"/></g><path fill="#d8d8d8" d="M 81.003906 189.84375 C 81.003906 153.882812 100.355469 122.464844 129.179688 105.394531 L 127.117188 85.28125 C 88.742188 104.394531 62.355469 144.015625 62.355469 189.84375 C 62.355469 205.171875 65.332031 219.800781 70.691406 233.207031 L 91.097656 233.207031 C 84.644531 220.121094 81.003906 205.410156 81.003906 189.84375 Z M 81.003906 189.84375 " fill-opacity="1" fill-rule="nonzero"/><path fill="#d8d8d8" d="M 96.457031 236.769531 L 76.066406 236.769531 C 86.300781 262.363281 105.3125 283.476562 129.378906 296.382812 L 143.070312 282.355469 C 122.820312 272.929688 106.332031 256.78125 96.457031 236.769531 Z M 96.457031 236.769531 " fill-opacity="1" fill-rule="nonzero"/><path fill="#d8d8d8" d="M 305.121094 146.796875 L 303.339844 153.820312 L 291.507812 166.628906 C 292.945312 173.332031 293.746094 180.296875 293.746094 187.421875 C 293.746094 197.246094 292.285156 206.710938 289.609375 215.65625 L 293.746094 217.835938 L 308.859375 216.035156 C 311.15625 206.871094 312.394531 197.285156 312.394531 187.421875 C 312.375 173.132812 309.796875 159.464844 305.121094 146.796875 Z M 305.121094 146.796875 " fill-opacity="1" fill-rule="nonzero"/><path fill="#d8d8d8" d="M 287.269531 221.921875 C 275.15625 262.304688 237.757812 291.738281 193.460938 291.738281 C 178.730469 291.738281 164.757812 288.457031 152.226562 282.613281 L 138.53125 296.644531 C 154.902344 305.40625 173.613281 310.410156 193.460938 310.410156 C 247.992188 310.410156 293.765625 272.929688 306.519531 222.300781 L 291.40625 224.101562 Z M 287.269531 221.921875 " fill-opacity="1" fill-rule="nonzero"/><path fill="#d8d8d8" d="M 289.1875 160.683594 L 301.023438 147.878906 L 302.800781 140.855469 C 288.488281 102.273438 254.367188 73.335938 212.8125 66.390625 L 201.996094 83.839844 C 245.113281 87.542969 280.234375 119.242188 289.1875 160.683594 Z M 289.1875 160.683594 " fill-opacity="1" fill-rule="nonzero"/><path fill="#d8d8d8" d="M 184.707031 83.480469 C 187.585938 83.480469 190.421875 83.621094 193.242188 83.882812 L 204.054688 66.429688 C 197.757812 65.371094 191.304688 64.8125 184.707031 64.8125 C 166.078125 64.8125 148.488281 69.214844 132.875 76.976562 L 134.933594 97.089844 C 149.527344 88.445312 166.535156 83.480469 184.707031 83.480469 Z M 184.707031 83.480469 " fill-opacity="1" fill-rule="nonzero"/></svg>