<svg xmlns="http://www.w3.org/2000/svg" xmlns:xlink="http://www.w3.org/1999/xlink" width="500" zoomAndPan="magnify" viewBox="0 0 375 374.999991" height="500" preserveAspectRatio="xMidYMid meet" version="1.0"><defs><clipPath id="2b015d6050"><path d="M 14.632812 14.632812 L 360.382812 14.632812 L 360.382812 360.382812 L 14.632812 360.382812 Z M 14.632812 14.632812 " clip-rule="nonzero"/></clipPath></defs><path fill="#e8ac34" d="M 347.886719 187.507812 C 347.886719 275.941406 275.941406 347.886719 187.507812 347.886719 C 154.574219 347.886719 123.929688 337.910156 98.4375 320.820312 C 55.46875 292.015625 27.128906 243.007812 27.128906 187.507812 C 27.128906 99.074219 99.074219 27.128906 187.507812 27.128906 C 214.679688 27.128906 240.296875 33.921875 262.746094 45.898438 C 313.363281 72.898438 347.886719 126.246094 347.886719 187.507812 Z M 347.886719 187.507812 " fill-opacity="1" fill-rule="nonzero"/><path fill="#fadb47" d="M 334.054688 179.210938 C 334.054688 267.644531 262.109375 339.589844 173.675781 339.589844 C 146.503906 339.589844 120.886719 332.796875 98.4375 320.820312 C 55.46875 292.015625 27.128906 243.007812 27.128906 187.507812 C 27.128906 99.074219 99.074219 27.128906 187.507812 27.128906 C 214.679688 27.128906 240.296875 33.921875 262.746094 45.898438 C 305.714844 74.703125 334.054688 123.710938 334.054688 179.210938 Z M 334.054688 179.210938 " fill-opacity="1" fill-rule="nonzero"/><g clip-path="url(#2b015d6050)"><path fill="#000000" d="M 346.792969 120.214844 C 338.085938 99.628906 325.621094 81.140625 309.746094 65.265625 C 293.875 49.390625 275.386719 36.925781 254.800781 28.21875 C 233.480469 19.203125 210.84375 14.632812 187.507812 14.632812 C 164.171875 14.632812 141.53125 19.203125 120.214844 28.21875 C 99.628906 36.925781 81.140625 49.390625 65.265625 65.265625 C 49.390625 81.140625 36.925781 99.628906 28.21875 120.214844 C 19.203125 141.53125 14.632812 164.171875 14.632812 187.507812 C 14.632812 210.84375 19.203125 233.480469 28.21875 254.800781 C 36.925781 275.386719 49.390625 293.875 65.265625 309.746094 C 81.140625 325.625 99.628906 338.085938 120.214844 346.792969 C 141.53125 355.808594 164.171875 360.382812 187.507812 360.382812 C 210.84375 360.382812 233.480469 355.808594 254.800781 346.792969 C 275.386719 338.085938 293.875 325.621094 309.746094 309.746094 C 325.625 293.875 338.085938 275.386719 346.792969 254.800781 C 355.808594 233.480469 360.382812 210.84375 360.382812 187.507812 C 360.382812 164.171875 355.808594 141.53125 346.792969 120.214844 Z M 187.507812 347.886719 C 99.074219 347.886719 27.128906 275.941406 27.128906 187.507812 C 27.128906 99.074219 99.074219 27.128906 187.507812 27.128906 C 275.941406 27.128906 347.886719 99.074219 347.886719 187.507812 C 347.886719 275.941406 275.941406 347.886719 187.507812 347.886719 Z M 187.507812 347.886719 " fill-opacity="1" fill-rule="nonzero"/></g><path fill="#000000" d="M 160.347656 170.84375 C 160.347656 171.9375 160.308594 173.023438 160.238281 174.109375 C 160.164062 175.195312 160.054688 176.277344 159.90625 177.347656 C 159.761719 178.417969 159.582031 179.472656 159.363281 180.519531 C 159.144531 181.5625 158.894531 182.589844 158.609375 183.597656 C 158.324219 184.605469 158.003906 185.589844 157.652344 186.554688 C 157.296875 187.515625 156.914062 188.453125 156.5 189.359375 C 156.082031 190.265625 155.640625 191.140625 155.164062 191.984375 C 154.691406 192.828125 154.1875 193.636719 153.660156 194.410156 C 153.132812 195.179688 152.578125 195.914062 152 196.605469 C 151.421875 197.296875 150.824219 197.945312 150.199219 198.554688 C 149.578125 199.160156 148.9375 199.71875 148.28125 200.234375 C 147.621094 200.75 146.945312 201.214844 146.253906 201.632812 C 145.5625 202.050781 144.859375 202.417969 144.144531 202.734375 C 143.429688 203.050781 142.707031 203.316406 141.972656 203.527344 C 141.238281 203.742188 140.5 203.902344 139.757812 204.007812 C 139.011719 204.117188 138.265625 204.167969 137.519531 204.167969 C 136.769531 204.167969 136.023438 204.117188 135.28125 204.007812 C 134.535156 203.902344 133.796875 203.742188 133.066406 203.527344 C 132.332031 203.316406 131.605469 203.050781 130.890625 202.734375 C 130.175781 202.417969 129.472656 202.050781 128.78125 201.632812 C 128.09375 201.214844 127.417969 200.75 126.757812 200.234375 C 126.097656 199.71875 125.457031 199.160156 124.835938 198.554688 C 124.214844 197.945312 123.613281 197.296875 123.035156 196.605469 C 122.457031 195.914062 121.90625 195.179688 121.375 194.410156 C 120.847656 193.636719 120.347656 192.828125 119.871094 191.984375 C 119.398438 191.140625 118.953125 190.265625 118.539062 189.359375 C 118.121094 188.453125 117.738281 187.515625 117.386719 186.554688 C 117.035156 185.589844 116.714844 184.605469 116.429688 183.597656 C 116.140625 182.589844 115.890625 181.5625 115.671875 180.519531 C 115.457031 179.472656 115.273438 178.417969 115.128906 177.347656 C 114.984375 176.277344 114.875 175.195312 114.800781 174.109375 C 114.726562 173.023438 114.691406 171.9375 114.691406 170.84375 C 114.691406 169.753906 114.726562 168.664062 114.800781 167.578125 C 114.875 166.492188 114.984375 165.414062 115.128906 164.34375 C 115.273438 163.273438 115.457031 162.214844 115.671875 161.171875 C 115.890625 160.125 116.140625 159.101562 116.429688 158.089844 C 116.714844 157.082031 117.035156 156.097656 117.386719 155.136719 C 117.738281 154.171875 118.121094 153.238281 118.539062 152.332031 C 118.953125 151.421875 119.398438 150.546875 119.871094 149.703125 C 120.347656 148.859375 120.847656 148.050781 121.375 147.28125 C 121.90625 146.507812 122.457031 145.777344 123.035156 145.085938 C 123.613281 144.390625 124.214844 143.742188 124.835938 143.136719 C 125.457031 142.53125 126.097656 141.96875 126.757812 141.453125 C 127.417969 140.941406 128.09375 140.472656 128.78125 140.054688 C 129.472656 139.640625 130.175781 139.273438 130.890625 138.953125 C 131.605469 138.636719 132.332031 138.375 133.066406 138.160156 C 133.796875 137.945312 134.535156 137.789062 135.28125 137.679688 C 136.023438 137.574219 136.769531 137.519531 137.519531 137.519531 C 138.265625 137.519531 139.011719 137.574219 139.757812 137.679688 C 140.5 137.789062 141.238281 137.945312 141.972656 138.160156 C 142.707031 138.375 143.429688 138.636719 144.144531 138.953125 C 144.859375 139.273438 145.5625 139.640625 146.253906 140.054688 C 146.945312 140.472656 147.621094 140.941406 148.28125 141.453125 C 148.9375 141.96875 149.578125 142.53125 150.199219 143.136719 C 150.824219 143.742188 151.421875 144.390625 152 145.085938 C 152.578125 145.777344 153.132812 146.507812 153.660156 147.28125 C 154.1875 148.050781 154.691406 148.859375 155.164062 149.703125 C 155.640625 150.546875 156.082031 151.421875 156.5 152.332031 C 156.914062 153.238281 157.296875 154.171875 157.652344 155.136719 C 158.003906 156.097656 158.324219 157.082031 158.609375 158.089844 C 158.894531 159.101562 159.144531 160.125 159.363281 161.171875 C 159.582031 162.214844 159.761719 163.273438 159.90625 164.34375 C 160.054688 165.414062 160.164062 166.492188 160.238281 167.578125 C 160.308594 168.664062 160.347656 169.753906 160.347656 170.84375 Z M 160.347656 170.84375 " fill-opacity="1" fill-rule="nonzero"/><path fill="#000000" d="M 260.324219 170.84375 C 260.324219 171.9375 260.285156 173.023438 260.214844 174.109375 C 260.140625 175.195312 260.03125 176.277344 259.882812 177.347656 C 259.738281 178.417969 259.558594 179.472656 259.339844 180.519531 C 259.125 181.5625 258.871094 182.589844 258.585938 183.597656 C 258.300781 184.605469 257.980469 185.589844 257.628906 186.554688 C 257.277344 187.515625 256.890625 188.453125 256.476562 189.359375 C 256.0625 190.265625 255.617188 191.140625 255.140625 191.984375 C 254.667969 192.828125 254.164062 193.636719 253.636719 194.410156 C 253.109375 195.179688 252.554688 195.914062 251.976562 196.605469 C 251.398438 197.296875 250.800781 197.945312 250.179688 198.554688 C 249.554688 199.160156 248.914062 199.71875 248.257812 200.234375 C 247.597656 200.75 246.921875 201.214844 246.230469 201.632812 C 245.539062 202.050781 244.835938 202.417969 244.121094 202.734375 C 243.40625 203.050781 242.683594 203.316406 241.949219 203.527344 C 241.214844 203.742188 240.476562 203.902344 239.734375 204.007812 C 238.988281 204.117188 238.242188 204.167969 237.496094 204.167969 C 236.746094 204.167969 236.003906 204.117188 235.257812 204.007812 C 234.515625 203.902344 233.773438 203.742188 233.042969 203.527344 C 232.308594 203.316406 231.585938 203.050781 230.867188 202.734375 C 230.152344 202.417969 229.449219 202.050781 228.757812 201.632812 C 228.070312 201.214844 227.394531 200.75 226.734375 200.234375 C 226.074219 199.71875 225.433594 199.160156 224.8125 198.554688 C 224.191406 197.945312 223.589844 197.296875 223.015625 196.605469 C 222.4375 195.914062 221.882812 195.179688 221.355469 194.410156 C 220.824219 193.636719 220.324219 192.828125 219.847656 191.984375 C 219.375 191.140625 218.929688 190.265625 218.515625 189.359375 C 218.097656 188.453125 217.714844 187.515625 217.363281 186.554688 C 217.011719 185.589844 216.691406 184.605469 216.40625 183.597656 C 216.121094 182.589844 215.867188 181.5625 215.652344 180.519531 C 215.433594 179.472656 215.253906 178.417969 215.105469 177.347656 C 214.960938 176.277344 214.851562 175.195312 214.777344 174.109375 C 214.703125 173.023438 214.667969 171.9375 214.667969 170.84375 C 214.667969 169.753906 214.703125 168.664062 214.777344 167.578125 C 214.851562 166.492188 214.960938 165.414062 215.105469 164.34375 C 215.253906 163.273438 215.433594 162.214844 215.652344 161.171875 C 215.867188 160.125 216.121094 159.101562 216.40625 158.089844 C 216.691406 157.082031 217.011719 156.097656 217.363281 155.136719 C 217.714844 154.171875 218.097656 153.238281 218.515625 152.332031 C 218.929688 151.421875 219.375 150.546875 219.847656 149.703125 C 220.324219 148.859375 220.824219 148.050781 221.355469 147.28125 C 221.882812 146.507812 222.4375 145.777344 223.015625 145.085938 C 223.589844 144.390625 224.191406 143.742188 224.8125 143.136719 C 225.433594 142.53125 226.074219 141.96875 226.734375 141.453125 C 227.394531 140.941406 228.070312 140.472656 228.757812 140.054688 C 229.449219 139.640625 230.152344 139.273438 230.867188 138.953125 C 231.585938 138.636719 232.308594 138.375 233.042969 138.160156 C 233.773438 137.945312 234.515625 137.789062 235.257812 137.679688 C 236.003906 137.574219 236.746094 137.519531 237.496094 137.519531 C 238.242188 137.519531 238.988281 137.574219 239.734375 137.679688 C 240.476562 137.789062 241.214844 137.945312 241.949219 138.160156 C 242.683594 138.375 243.40625 138.636719 244.121094 138.953125 C 244.835938 139.273438 245.539062 139.640625 246.230469 140.054688 C 246.921875 140.472656 247.597656 140.941406 248.257812 141.453125 C 248.914062 141.96875 249.554688 142.53125 250.179688 143.136719 C 250.800781 143.742188 251.398438 144.390625 251.976562 145.085938 C 252.554688 145.777344 253.109375 146.507812 253.636719 147.28125 C 254.164062 148.050781 254.667969 148.859375 255.140625 149.703125 C 255.617188 150.546875 256.0625 151.421875 256.476562 152.332031 C 256.890625 153.238281 257.277344 154.171875 257.628906 155.136719 C 257.980469 156.097656 258.300781 157.082031 258.585938 158.089844 C 258.871094 159.101562 259.125 160.125 259.339844 161.171875 C 259.558594 162.214844 259.738281 163.273438 259.882812 164.34375 C 260.03125 165.414062 260.140625 166.492188 260.214844 167.578125 C 260.285156 168.664062 260.324219 169.753906 260.324219 170.84375 Z M 260.324219 170.84375 " fill-opacity="1" fill-rule="nonzero"/><path fill="#000000" d="M 263.550781 280.484375 C 252.867188 270.773438 241.046875 263.214844 228.410156 258.019531 C 215.277344 252.621094 201.515625 249.886719 187.507812 249.886719 C 173.496094 249.886719 159.734375 252.621094 146.605469 258.019531 C 133.96875 263.214844 122.144531 270.773438 111.464844 280.480469 C 108.816406 282.890625 108.621094 286.992188 111.03125 289.640625 C 113.4375 292.289062 117.539062 292.484375 120.1875 290.074219 C 139.777344 272.265625 163.058594 262.851562 187.507812 262.851562 C 211.960938 262.851562 235.238281 272.265625 254.828125 290.078125 C 256.070312 291.207031 257.632812 291.761719 259.1875 291.761719 C 260.953125 291.761719 262.710938 291.046875 263.988281 289.640625 C 266.394531 286.992188 266.199219 282.890625 263.550781 280.484375 Z M 263.550781 280.484375 " fill-opacity="1" fill-rule="nonzero"/></svg>